<svg version="1.1" id="Layer_1" xmlns="http://www.w3.org/2000/svg" xmlns:xlink="http://www.w3.org/1999/xlink" x="0px" y="0px"
	 width="100%" viewBox="0 0 314 95" enable-background="new 0 0 314 95" xml:space="preserve">
<path fill="#212025" opacity="1.000000" stroke="none" 
	d="
M227.000000,96.000000 
	C152.666687,96.000000 78.833321,95.969650 5.000231,96.096275 
	C1.575884,96.102150 0.879500,95.427223 0.900034,91.999474 
	C1.074759,62.833858 1.056118,33.666481 0.914979,4.500506 
	C0.900538,1.516271 1.517656,0.915545 4.499981,0.918402 
	C106.833191,1.016432 209.166534,1.016415 311.499725,0.918465 
	C314.481293,0.915612 315.099426,1.515211 315.085083,4.500218 
	C314.944122,33.832867 314.944244,63.166729 315.084991,92.499382 
	C315.099304,95.483253 314.485046,96.100578 311.499786,96.085266 
	C283.500458,95.941582 255.500076,96.000000 227.000000,96.000000 
z"/>
<path fill="#9A71AA" opacity="1.000000" stroke="none" 
	d="
M238.188385,32.127777 
	C241.731888,35.269966 244.815842,35.668858 248.665924,32.991615 
	C251.477646,31.036440 255.163376,31.558332 258.413727,32.151035 
	C262.757782,32.943180 264.611176,36.148621 263.867188,40.273472 
	C262.357056,48.645966 259.154877,56.544754 256.043732,64.411797 
	C254.839325,67.457344 251.829605,65.731621 249.080261,65.676468 
	C251.438705,58.729050 253.692688,52.141613 255.907562,45.541058 
	C256.885986,42.625282 257.817657,39.467880 254.573883,37.475060 
	C251.399658,35.524963 248.474915,37.107780 245.924652,39.210514 
	C243.666000,41.072815 242.500992,43.650757 241.580780,46.367683 
	C239.713730,51.880016 237.680649,57.339897 235.967880,62.899006 
	C235.175781,65.469872 233.746017,66.131279 231.235886,66.084114 
	C228.681290,66.036125 228.037552,65.351967 228.954666,62.885357 
	C231.039948,57.276939 232.988068,51.615784 234.894455,45.943298 
	C235.912048,42.915401 237.135208,39.450672 233.641800,37.405529 
	C230.352890,35.480103 227.207596,37.103764 224.564651,39.454811 
	C222.504913,41.287060 221.483459,43.746307 220.615341,46.288757 
	C218.734268,51.797665 216.778519,57.281769 214.964020,62.812340 
	C214.274384,64.914330 213.399185,66.174026 210.819931,66.100471 
	C208.210541,66.026062 207.118378,65.564400 208.130630,62.721756 
	C211.422348,53.477844 214.634201,44.204792 217.779800,34.910130 
	C218.402390,33.070511 219.416412,31.716187 221.313644,32.263626 
	C226.865662,33.865635 232.292145,31.008871 238.188385,32.127777 
z"/>
<path fill="#9A71AA" opacity="1.000000" stroke="none" 
	d="
M62.573578,66.308617 
	C60.834393,66.298943 59.356300,66.657715 58.198448,66.202301 
	C52.465469,63.947361 50.821903,67.367348 49.723454,71.910385 
	C49.256477,73.841736 48.460052,75.692543 47.830517,77.585670 
	C46.872627,80.466217 44.398769,80.085060 42.414265,79.661377 
	C39.637962,79.068642 41.287369,77.038200 41.749851,75.682808 
	C46.312061,62.312416 50.954273,48.969345 55.551434,35.610836 
	C56.160107,33.842148 56.716137,31.621563 59.066090,32.285320 
	C64.314735,33.767834 69.360016,31.545212 74.516594,31.884226 
	C79.677231,32.223511 82.541168,34.789005 81.907539,39.772236 
	C80.959114,47.231255 78.617996,54.382305 74.080215,60.511604 
	C71.408630,64.120178 67.662071,66.251564 62.573578,66.308617 
z"/>
<path fill="#9B71AA" opacity="1.000000" stroke="none" 
	d="
M198.443512,40.190601 
	C197.113464,36.730335 194.688553,36.006931 191.827774,36.673267 
	C189.584763,37.195721 187.461258,38.213070 185.234436,38.829041 
	C183.536545,39.298698 181.664886,39.146374 181.002182,37.265972 
	C180.399216,35.555096 182.295090,35.187943 183.338181,34.571598 
	C188.481064,31.532757 194.128967,31.256296 199.772690,32.295841 
	C204.225082,33.115948 206.713776,36.865566 205.459976,41.273354 
	C203.279358,48.939560 200.494949,56.433182 198.010437,64.014481 
	C197.506149,65.553329 196.485489,66.008476 194.997375,66.018883 
	C189.356720,66.058327 183.704285,66.404312 178.079346,66.141373 
	C172.442368,65.877884 170.143509,62.294388 171.636337,56.949268 
	C173.428024,50.533974 178.263870,46.511280 184.953766,46.044361 
	C187.438293,45.870956 189.973633,45.741425 192.432495,46.036316 
	C196.676620,46.545322 198.726501,44.944386 198.443512,40.190601 
z"/>
<path fill="#9B72AB" opacity="1.000000" stroke="none" 
	d="
M114.876724,56.341133 
	C116.120079,52.160969 117.091568,48.267277 118.595596,44.591488 
	C122.576027,34.863377 131.188995,30.252665 141.509811,32.047127 
	C146.373184,32.892712 149.363998,36.310993 148.626678,41.213284 
	C147.659042,47.646961 145.856979,53.943043 141.735992,59.192875 
	C135.707565,66.872673 128.320374,67.338737 120.122993,65.719147 
	C115.668297,64.839020 114.508591,60.968697 114.876724,56.341133 
z"/>
<path fill="#9970A7" opacity="1.000000" stroke="none" 
	d="
M162.287872,61.154533 
	C163.877258,61.238159 165.191788,61.314472 164.776047,63.059845 
	C164.519882,64.135376 164.370239,65.710037 163.026932,65.807274 
	C159.936722,66.030945 156.619507,66.937271 153.904526,64.659286 
	C151.601318,62.726795 152.157578,60.062904 152.957123,57.696072 
	C157.054810,45.565960 161.340591,33.499207 165.409378,21.359617 
	C166.514084,18.063620 169.113861,18.641603 171.104233,19.160271 
	C174.067581,19.932472 171.927216,22.154799 171.476471,23.499884 
	C167.936554,34.063557 164.165695,44.549809 160.621063,55.111954 
	C159.928284,57.176216 157.896301,59.915924 162.287872,61.154533 
z"/>
<path fill="#9970A7" opacity="1.000000" stroke="none" 
	d="
M110.977257,37.869816 
	C103.820091,35.497448 98.811096,37.884499 96.122147,44.973003 
	C93.882637,50.876717 91.955040,56.899799 89.941795,62.887669 
	C89.325172,64.721680 88.679810,66.046516 86.259308,66.106224 
	C83.081474,66.184601 82.073219,65.485817 83.272522,62.199524 
	C86.520676,53.299088 89.636269,44.346573 92.584190,35.342606 
	C93.431183,32.755600 95.041420,31.414673 97.297829,32.300488 
	C100.720146,33.644009 103.769638,32.902462 107.016685,32.052776 
	C108.425865,31.684023 109.994728,31.876593 111.489929,31.897018 
	C113.689629,31.927071 116.803711,32.118423 116.837662,34.361458 
	C116.875671,36.872517 114.279922,38.373913 110.977257,37.869816 
z"/>
<path fill="#242229" opacity="1.000000" stroke="none" 
	d="
M74.547287,43.543007 
	C73.307594,47.231613 72.265007,50.569996 71.034126,53.837444 
	C69.821167,57.057346 67.733734,59.558975 64.543915,61.090256 
	C62.124325,62.251785 59.714188,62.653240 57.500042,60.904675 
	C55.410172,59.254261 55.192654,56.836655 55.976643,54.515919 
	C58.073708,48.308254 58.730896,41.248524 65.357834,37.549080 
	C70.889603,34.461010 74.587326,36.708435 74.547287,43.543007 
z"/>
<path fill="#262329" opacity="1.000000" stroke="none" 
	d="
M192.398834,59.449783 
	C189.884201,61.342636 187.279602,61.821198 184.611069,61.837685 
	C182.079742,61.853329 179.225098,61.610069 178.456451,58.749561 
	C177.624008,55.651524 179.548859,53.281452 182.176254,51.875183 
	C185.875092,49.895439 189.962509,50.912006 193.893677,50.923649 
	C195.372269,50.928028 195.209137,52.138878 194.877792,53.109161 
	C194.183197,55.143147 193.403107,57.147942 192.398834,59.449783 
z"/>
<path fill="#252329" opacity="1.000000" stroke="none" 
	d="
M127.858536,61.910812 
	C123.400795,61.564404 121.339058,59.296951 122.003616,55.278160 
	C122.818085,50.352726 124.286011,45.562950 127.275322,41.449165 
	C129.425507,38.490166 132.359238,36.583401 136.111298,36.623238 
	C139.318420,36.657291 141.455170,38.235371 141.669281,41.725555 
	C142.156662,49.670383 135.725311,59.327965 127.858536,61.910812 
z"/>
</svg>