<svg version="1.1" id="Layer_1" xmlns="http://www.w3.org/2000/svg" xmlns:xlink="http://www.w3.org/1999/xlink" x="0px" y="0px"
	 width="100%" viewBox="0 0 432 128" enable-background="new 0 0 432 128" xml:space="preserve">
<path fill="#000000" opacity="1.000000" stroke="none" 
	d="
M12.466117,129.000000 
	C14.509984,106.867523 17.017399,84.734756 19.531738,62.602776 
	C20.169807,56.986282 20.918472,51.380600 21.445789,45.753963 
	C21.749031,42.518272 23.275949,40.696217 26.531223,41.006573 
	C34.621033,41.777855 42.457237,40.131470 50.435123,39.306473 
	C71.964554,37.080109 87.242348,58.344513 80.363037,79.857048 
	C73.758720,100.509613 49.519169,111.175758 33.794117,104.003372 
	C33.070808,103.673470 32.230709,103.599625 30.444387,103.160606 
	C29.313072,111.680077 28.219093,119.918388 27.062557,128.578339 
	C22.310745,129.000000 17.621489,129.000000 12.466117,129.000000 
M59.108547,86.651985 
	C61.833965,84.109016 63.782654,81.067123 65.033424,77.556557 
	C67.933464,69.416954 65.760376,60.519928 59.830318,56.356529 
	C53.613197,51.991596 43.398815,52.739792 36.962322,57.985909 
	C35.459034,59.211174 34.585075,60.692921 34.386536,62.627766 
	C33.709278,69.227676 33.058407,75.831299 32.272038,82.418541 
	C31.933105,85.257652 33.051201,87.097862 35.323090,88.678604 
	C41.850887,93.220543 50.606045,92.697372 59.108547,86.651985 
z"/>
<path fill="#000000" opacity="1.000000" stroke="none" 
	d="
M433.000000,66.545891 
	C430.658661,76.577461 430.390259,86.427650 429.243896,96.158607 
	C428.460175,102.811295 425.807617,104.800117 419.284760,103.146721 
	C416.507202,102.442665 416.695435,100.425568 416.885834,98.446259 
	C417.554901,91.489555 418.146667,84.517487 419.118683,77.600555 
	C419.795013,72.787514 419.940399,67.973305 419.941650,63.155346 
	C419.944458,52.448421 413.473480,47.262512 402.947998,49.574581 
	C398.335144,50.587872 394.206360,52.778786 390.727356,56.065075 
	C389.361267,57.355461 388.455688,58.775440 388.248596,60.775917 
	C386.981049,73.019394 385.577057,85.248665 384.259888,97.487122 
	C383.716003,102.540771 377.550049,105.567726 373.274628,102.765465 
	C371.186462,101.396805 371.820221,99.186699 372.026733,97.278999 
	C373.048187,87.844070 374.172577,78.420273 375.265747,68.993134 
	C376.031433,62.390079 376.595734,55.530666 370.231720,51.322289 
	C363.544495,46.900169 356.837250,49.715237 350.392853,52.830105 
	C345.327423,55.278454 343.511230,59.302845 343.133270,64.841454 
	C342.397583,75.622681 341.082764,86.368301 339.841797,97.109489 
	C339.203217,102.636589 333.940369,105.371208 328.963745,103.004013 
	C327.020172,102.079536 327.265137,100.426857 327.448547,98.716187 
	C328.654724,87.467239 329.808472,76.212685 331.011719,64.963409 
	C331.631012,59.173943 332.199646,53.374828 333.023468,47.613281 
	C333.423340,44.816776 332.643829,40.939987 336.501678,40.117210 
	C340.136658,39.341965 344.195374,38.731388 346.807587,43.057404 
	C353.112030,39.352924 359.620544,37.140877 366.905396,37.972095 
	C372.175354,38.573406 377.294189,39.908958 380.936462,43.780724 
	C383.997040,47.034142 386.064392,46.328529 389.301270,44.186367 
	C396.545013,39.392422 404.347015,36.940380 413.414978,38.298283 
	C423.167114,39.758640 429.261108,44.577377 431.748810,54.061531 
	C431.958069,54.859367 432.358459,55.607079 432.835022,56.689037 
	C433.000000,60.030594 433.000000,63.061188 433.000000,66.545891 
z"/>
<path fill="#000000" opacity="1.000000" stroke="none" 
	d="
M156.257599,95.725761 
	C144.103195,81.498795 143.831848,63.748188 155.315582,50.312675 
	C165.710159,38.151432 183.740707,35.099689 197.505997,43.171776 
	C214.594757,53.192772 219.623993,75.619591 208.386078,91.689354 
	C196.964920,108.021179 174.054443,110.941772 158.706024,98.014954 
	C157.943268,97.372536 157.240173,96.659256 156.257599,95.725761 
M191.820221,89.483223 
	C200.103027,83.795273 202.637436,75.167999 198.757889,65.867081 
	C195.161346,57.244656 184.803528,51.738594 175.860168,53.694992 
	C166.757751,55.686188 161.140381,62.694107 161.244278,71.928963 
	C161.410782,86.727959 177.095169,96.125374 191.820221,89.483223 
z"/>
<path fill="#000000" opacity="1.000000" stroke="none" 
	d="
M303.528168,51.307529 
	C294.983124,47.158802 287.366333,49.862194 279.748260,53.153656 
	C277.900909,53.951836 276.356476,56.053169 273.901489,54.982319 
	C273.944214,49.094036 278.230377,42.296402 283.118225,40.438385 
	C288.308594,38.465378 293.665283,37.432934 299.250854,37.885899 
	C313.262909,39.022221 321.317505,48.389732 319.983307,62.433056 
	C318.867554,74.177429 317.421814,85.891266 316.048553,97.609993 
	C315.421204,102.963470 309.974121,105.700935 304.955139,102.490318 
	C302.325500,100.808136 300.745148,101.621407 298.653656,102.423141 
	C293.149475,104.533051 287.519775,105.970863 281.590210,104.877769 
	C274.459137,103.563179 267.921814,101.288124 265.823669,93.168434 
	C263.969116,85.991570 267.520142,76.753059 273.802216,71.941696 
	C281.519653,66.030998 290.714111,64.512672 299.915222,62.920273 
	C302.557037,62.463055 306.254822,63.621078 307.362061,60.274757 
	C308.503632,56.824707 306.455719,53.876381 303.528168,51.307529 
M293.224365,74.628204 
	C288.338928,75.887672 283.561951,77.414749 280.264221,81.566673 
	C277.144745,85.494110 277.557312,89.737160 281.113068,91.941933 
	C285.947876,94.939796 300.018341,92.921936 303.780945,88.738152 
	C304.637878,87.785309 304.699127,86.649605 304.931641,85.516716 
	C307.714600,71.954826 307.675507,71.912224 293.224365,74.628204 
z"/>
<path fill="#000000" opacity="1.000000" stroke="none" 
	d="
M96.286430,104.106262 
	C92.403511,104.329750 91.107780,102.961357 91.516594,99.345032 
	C93.493973,81.853310 95.332115,64.345222 97.099625,46.830826 
	C97.535172,42.514988 99.547867,40.402912 103.905724,41.002827 
	C111.318604,42.023304 118.583252,41.673138 125.719261,39.239784 
	C126.776886,38.879139 128.030975,39.022133 129.191650,39.047482 
	C139.889908,39.281170 143.438416,44.361843 140.087326,54.515205 
	C139.157196,57.333424 137.452103,56.410545 135.781219,55.535358 
	C128.741898,51.848267 121.937889,53.238373 115.200409,56.408333 
	C112.057510,57.887058 110.582726,60.260563 110.271164,63.829414 
	C109.360794,74.257492 108.203239,84.665459 107.031921,95.068848 
	C106.008568,104.158104 105.942261,104.150635 96.286430,104.106262 
z"/>
<path fill="#000000" opacity="1.000000" stroke="none" 
	d="
M258.399170,93.755966 
	C258.914459,100.159416 255.452271,102.728203 250.197433,104.196396 
	C235.685074,108.251144 224.585480,99.082390 226.226791,84.116325 
	C228.728851,61.301468 231.321594,38.496490 233.912857,15.691521 
	C234.526657,10.289716 239.598511,7.679890 244.445465,10.181999 
	C247.026459,11.514375 246.281799,13.937520 246.067764,15.950852 
	C244.714035,28.685253 243.213821,41.404037 241.774536,54.129402 
	C240.653305,64.042694 239.410080,73.944977 238.483353,83.876617 
	C237.732620,91.922234 243.029465,95.698601 250.559769,92.711716 
	C251.942245,92.163353 253.250839,91.394821 254.526611,90.617989 
	C257.994263,88.506500 259.124054,89.625259 258.399170,93.755966 
z"/>
</svg>